<svg xmlns="http://www.w3.org/2000/svg" viewBox="0 0 140.9 164.18"><defs><style>.cls-1{fill:#1d1d1b;}</style></defs><title>Fichier 2</title><g id="Calque_2" data-name="Calque 2"><g id="Capa_1" data-name="Capa 1"><path class="cls-1" d="M22.33,44.44c-.34-5.64-3-44.1-3-44.1L19.15.28,19,.34,17.15,36a.57.57,0,0,1-.57.56A.55.55,0,0,1,16,36L14,.36,13.82.28l-.19.08L11.69,35.94s0,.57-.52.57-.53-.57-.53-.57L8.71.36,8.52.29,8.32.36,6.31,36a.57.57,0,0,1-.56.56A.59.59,0,0,1,5.18,36L3.36.34,3.18.28,3,.34S.34,38.8,0,44.44a1,1,0,0,0,.73,1c1.67.54,5.64,2.67,8.09,8.77,2.7,6.29-2.7,80.61-4.16,96.71a14.58,14.58,0,0,0,6.51,13.24h0a14.57,14.57,0,0,0,6.5-13.24c-1.46-16.1-6.87-90.42-4.16-96.71C16,48.13,19.93,46,21.6,45.47A1,1,0,0,0,22.33,44.44ZM5.91,150.39a19.52,19.52,0,0,1,.64-4.12s-.46,5.17.13,7.89c.44,2.34,1.36,4.83,4.4,8.66A14.38,14.38,0,0,1,5.91,150.39ZM20.9,45c-1.67.54-5.64,2.43-8.09,8.53a16.43,16.43,0,0,1,5.65-8.09c.63-.5,2.17-1.56,2.32-2.81s.14-3.81.06-9.61c.39,5.18.71,9.36.8,11A1,1,0,0,1,20.9,45Z"/><path class="cls-1" d="M101.24,53.66c5.16-5.26,8.54-14.11,8.54-24.13C109.78,13.4,101,.32,90.18.32S70.57,13.4,70.57,29.53c0,10,3.36,18.78,8.48,24.05,0,.49-.06.9-.08,1.21a.94.94,0,0,0,.73,1c1.67.54,5.64,2.43,8.09,8.53,2.7,6.29-2.7,70.5-4.16,86.6a14.58,14.58,0,0,0,6.51,13.24h0a14.58,14.58,0,0,0,6.5-13.24c-1.46-16.09-6.86-80.31-4.16-86.6,2.45-6.1,6.42-8,8.09-8.53a1,1,0,0,0,.74-1C101.29,54.5,101.26,54.12,101.24,53.66Zm-21,1.09a.88.88,0,0,1-.69-1l.07-1.12c-4.83-4.9-8-13.09-8-22.37.81,10.84,4.13,16,8.9,20.95l-.09,1.12a.88.88,0,0,0,.68,1c4.53,3.4,6.17,6.12,6.77,9.33C85.53,57,81.78,55.25,80.2,54.75Zm14.51,99.19c.6-2.72.13-7.88.13-7.88a19.6,19.6,0,0,1,.64,4.11,14.39,14.39,0,0,1-5.18,12.44C93.35,158.78,94.28,156.28,94.71,153.95Zm5-98.7a12.32,12.32,0,0,0-5.85,4.37,13,13,0,0,1,6.6-5.5s0,.05,0,.08A1,1,0,0,1,99.73,55.24ZM88.55,2a12.45,12.45,0,0,1,1.64-.11c10.06,0,18.21,12.16,18.21,27.15a36.28,36.28,0,0,1-3.87,16.72A46,46,0,0,0,107.26,30C107.26,14.32,99.55,2,88.55,2Z"/><path class="cls-1" d="M135.9,99.55c3-3.08,5-8.25,5-14.11,0-9.43-5.13-17.08-11.46-17.08S118,76,118,85.44c0,5.83,2,11,5,14.07,0,.29,0,.52,0,.71a.55.55,0,0,0,.43.6c1,.32,3.3,1.42,4.73,5,1.58,3.68-1.58,41.23-2.43,50.64a8.53,8.53,0,0,0,3.8,7.74h0a8.53,8.53,0,0,0,3.8-7.74c-.85-9.41-4-47-2.43-50.64s3.75-4.67,4.73-5a.55.55,0,0,0,.43-.6C135.93,100,135.92,99.82,135.9,99.55Zm-12.3.64a.52.52,0,0,1-.4-.56c0-.17,0-.39,0-.66-2.83-2.86-4.68-7.65-4.68-13.08.47,6.34,2.42,9.33,5.21,12.25,0,.27,0,.49-.05.66a.52.52,0,0,0,.4.56c2.65,2,3.61,3.58,4,5.46A7.49,7.49,0,0,0,123.6,100.19Zm8.49,58a20.55,20.55,0,0,0,.08-4.61,11.51,11.51,0,0,1,.37,2.41,8.4,8.4,0,0,1-3,7.27A10.91,10.91,0,0,0,132.09,158.2ZM135,100.47A7.21,7.21,0,0,0,131.6,103a7.61,7.61,0,0,1,3.86-3.22.35.35,0,0,1,0,0A.56.56,0,0,1,135,100.47Zm-6.53-31.12a7.52,7.52,0,0,1,1-.06c5.88,0,10.65,7.11,10.65,15.88a21.2,21.2,0,0,1-2.26,9.78,26.9,26.9,0,0,0,1.59-9.26C139.42,76.54,134.91,69.36,128.49,69.36Z"/><path class="cls-1" d="M56.69,150.94c-.75-8.25-2.59-42-3-73.4,2.37-32,.31-67.09.68-72.73.4-6.07-4.51-7-8.74.64C38.68,18,36.11,56.74,45,76.56c.14.47.24.66.33,1.11,2.05,9.39-.23,57.92-1.62,73.28a14.57,14.57,0,0,0,6.5,13.24h0A14.58,14.58,0,0,0,56.69,150.94ZM44.88,9.68A9.58,9.58,0,0,1,46,6.83C48.44,2,50.91.29,52.65,1.07,50.83,1,49.3,2.44,48,4.23A31.85,31.85,0,0,0,44.88,9.68Zm2.25,69.17c-1,0-1.31-1.09-1.31-1.51a2.23,2.23,0,0,0,1.4.54h5.54a.49.49,0,1,1,0,1Zm3.23,83.76c3-3.83,4-6.32,4.4-8.66.6-2.72.14-7.89.14-7.89a19.7,19.7,0,0,1,.64,4.12A14.39,14.39,0,0,1,50.36,162.61Z"/></g></g></svg>